{
  "accessors": [
    {
      "bufferView": 2,
      "componentType": 5126,
      "count": 212,
      "max": [
        0.9248020052909851,
        0.0,
        1.8486706018447876
      ],
      "min": [
        -2.9802322387695313e-08,
        -0.5160303115844727,
        0.0
      ],
      "type": "VEC3"
    },
    {
      "bufferView": 2,
      "byteOffset": 2544,
      "componentType": 5126,
      "count": 212,
      "max": [
        1.0,
        1.0,
        1.0
      ],
      "min": [
        -1.0,
        -1.0,
        -1.0
      ],
      "type": "VEC3"
    },
    {
      "bufferView": 3,
      "componentType": 5126,
      "count": 212,
      "max": [
        1.0,
        1.0,
        1.0,
        1.0
      ],
      "min": [
        -1.0,
        -1.0,
        -1.0,
        1.0
      ],
      "type": "VEC4"
    },
    {
      "bufferView": 1,
      "componentType": 5126,
      "count": 212,
      "max": [
        0.9805563688278198,
        0.7472642064094543
      ],
      "min": [
        0.0013834909768775105,
        0.001383636030368507
      ],
      "type": "VEC2"
    },
    {
      "bufferView": 1,
      "byteOffset": 1696,
      "componentType": 5126,
      "count": 212,
      "max": [
        0.9805563688278198,
        0.7472642064094543
      ],
      "min": [
        0.0013834909768775105,
        0.001383636030368507
      ],
      "type": "VEC2"
    },
    {
      "bufferView": 1,
      "byteOffset": 3392,
      "componentType": 5126,
      "count": 212,
      "max": [
        0.9805563688278198,
        0.7472642064094543
      ],
      "min": [
        0.0013834909768775105,
        0.001383636030368507
      ],
      "type": "VEC2"
    },
    {
      "bufferView": 0,
      "componentType": 5125,
      "count": 576,
      "type": "SCALAR"
    },
    {
      "bufferView": 2,
      "byteOffset": 5088,
      "componentType": 5126,
      "count": 48,
      "max": [
        0.20796026289463043,
        0.48619556427001953,
        0.5428241491317749
      ],
      "min": [
        -0.20796021819114685,
        0.0,
        0.0
      ],
      "type": "VEC3"
    },
    {
      "bufferView": 2,
      "byteOffset": 5664,
      "componentType": 5126,
      "count": 48,
      "max": [
        1.0,
        1.0,
        1.0
      ],
      "min": [
        -1.0,
        -1.0,
        -1.0
      ],
      "type": "VEC3"
    },
    {
      "bufferView": 3,
      "byteOffset": 3392,
      "componentType": 5126,
      "count": 48,
      "max": [
        0.8951980471611023,
        1.0,
        1.0,
        1.0
      ],
      "min": [
        -1.0,
        -0.9999954104423523,
        -0.9999963641166687,
        1.0
      ],
      "type": "VEC4"
    },
    {
      "bufferView": 1,
      "byteOffset": 5088,
      "componentType": 5126,
      "count": 48,
      "max": [
        0.9659756422042847,
        0.9951371550559998
      ],
      "min": [
        0.0013107185950502753,
        0.5022510290145874
      ],
      "type": "VEC2"
    },
    {
      "bufferView": 1,
      "byteOffset": 5472,
      "componentType": 5126,
      "count": 48,
      "max": [
        0.9659756422042847,
        0.9951371550559998
      ],
      "min": [
        0.0013107185950502753,
        0.5022510290145874
      ],
      "type": "VEC2"
    },
    {
      "bufferView": 1,
      "byteOffset": 5856,
      "componentType": 5126,
      "count": 48,
      "max": [
        0.9659756422042847,
        0.9951371550559998
      ],
      "min": [
        0.0013107185950502753,
        0.5022510290145874
      ],
      "type": "VEC2"
    },
    {
      "bufferView": 0,
      "byteOffset": 2304,
      "componentType": 5125,
      "count": 84,
      "type": "SCALAR"
    },
    {
      "bufferView": 2,
      "byteOffset": 6240,
      "componentType": 5126,
      "count": 48,
      "max": [
        0.20796021819114685,
        0.48619556427001953,
        0.5428241491317749
      ],
      "min": [
        -0.20796026289463043,
        0.0,
        0.0
      ],
      "type": "VEC3"
    },
    {
      "bufferView": 2,
      "byteOffset": 6816,
      "componentType": 5126,
      "count": 48,
      "max": [
        1.0,
        1.0,
        1.0
      ],
      "min": [
        -1.0,
        -1.0,
        -1.0
      ],
      "type": "VEC3"
    },
    {
      "bufferView": 3,
      "byteOffset": 4160,
      "componentType": 5126,
      "count": 48,
      "max": [
        0.006112378090620041,
        1.0,
        1.0,
        1.0
      ],
      "min": [
        -1.0,
        -1.0,
        -0.9999971389770508,
        1.0
      ],
      "type": "VEC4"
    },
    {
      "bufferView": 1,
      "byteOffset": 6240,
      "componentType": 5126,
      "count": 48,
      "max": [
        0.95139479637146,
        0.9987824559211731
      ],
      "min": [
        0.0016537412302568555,
        0.00219315686263144
      ],
      "type": "VEC2"
    },
    {
      "bufferView": 1,
      "byteOffset": 6624,
      "componentType": 5126,
      "count": 48,
      "max": [
        0.95139479637146,
        0.9987824559211731
      ],
      "min": [
        0.0016537412302568555,
        0.00219315686263144
      ],
      "type": "VEC2"
    },
    {
      "bufferView": 1,
      "byteOffset": 7008,
      "componentType": 5126,
      "count": 48,
      "max": [
        0.95139479637146,
        0.9987824559211731
      ],
      "min": [
        0.0016537412302568555,
        0.00219315686263144
      ],
      "type": "VEC2"
    },
    {
      "bufferView": 0,
      "byteOffset": 2640,
      "componentType": 5125,
      "count": 84,
      "type": "SCALAR"
    },
    {
      "bufferView": 2,
      "byteOffset": 7392,
      "componentType": 5126,
      "count": 48,
      "max": [
        0.20796026289463043,
        0.48619556427001953,
        0.5428240895271301
      ],
      "min": [
        -0.20796021819114685,
        0.0,
        -2.9802322387695313e-08
      ],
      "type": "VEC3"
    },
    {
      "bufferView": 2,
      "byteOffset": 7968,
      "componentType": 5126,
      "count": 48,
      "max": [
        1.0,
        1.0,
        1.0
      ],
      "min": [
        -1.0,
        -1.0,
        -1.0
      ],
      "type": "VEC3"
    },
    {
      "bufferView": 3,
      "byteOffset": 4928,
      "componentType": 5126,
      "count": 48,
      "max": [
        1.0,
        1.0,
        1.0,
        1.0
      ],
      "min": [
        -1.0,
        -1.0,
        -0.9999971389770508,
        1.0
      ],
      "type": "VEC4"
    },
    {
      "bufferView": 1,
      "byteOffset": 7392,
      "componentType": 5126,
      "count": 48,
      "max": [
        0.9805563688278198,
        0.9987823963165283
      ],
      "min": [
        0.2793591320514679,
        0.0027324091643095016
      ],
      "type": "VEC2"
    },
    {
      "bufferView": 1,
      "byteOffset": 7776,
      "componentType": 5126,
      "count": 48,
      "max": [
        0.9805563688278198,
        0.9987823963165283
      ],
      "min": [
        0.2793591320514679,
        0.0027324091643095016
      ],
      "type": "VEC2"
    },
    {
      "bufferView": 1,
      "byteOffset": 8160,
      "componentType": 5126,
      "count": 48,
      "max": [
        0.9805563688278198,
        0.9987823963165283
      ],
      "min": [
        0.2793591320514679,
        0.0027324091643095016
      ],
      "type": "VEC2"
    },
    {
      "bufferView": 0,
      "byteOffset": 2976,
      "componentType": 5125,
      "count": 84,
      "type": "SCALAR"
    },
    {
      "bufferView": 2,
      "byteOffset": 8544,
      "componentType": 5126,
      "count": 52,
      "max": [
        0.20796020328998566,
        0.48619556427001953,
        0.5428240895271301
      ],
      "min": [
        -0.20796026289463043,
        0.0,
        -2.9802322387695313e-08
      ],
      "type": "VEC3"
    },
    {
      "bufferView": 2,
      "byteOffset": 9168,
      "componentType": 5126,
      "count": 52,
      "max": [
        1.0,
        1.0,
        1.0
      ],
      "min": [
        -1.0,
        -1.0,
        -1.0
      ],
      "type": "VEC3"
    },
    {
      "bufferView": 3,
      "byteOffset": 5696,
      "componentType": 5126,
      "count": 52,
      "max": [
        1.0,
        1.0,
        1.0,
        1.0
      ],
      "min": [
        -1.0,
        -1.0,
        -1.0,
        1.0
      ],
      "type": "VEC4"
    },
    {
      "bufferView": 1,
      "byteOffset": 8544,
      "componentType": 5126,
      "count": 52,
      "max": [
        0.9659756422042847,
        0.9914919137954712
      ],
      "min": [
        0.0016564464895054698,
        0.002859701169654727
      ],
      "type": "VEC2"
    },
    {
      "bufferView": 1,
      "byteOffset": 8960,
      "componentType": 5126,
      "count": 52,
      "max": [
        0.9659756422042847,
        0.9914919137954712
      ],
      "min": [
        0.0016564464895054698,
        0.002859701169654727
      ],
      "type": "VEC2"
    },
    {
      "bufferView": 1,
      "byteOffset": 9376,
      "componentType": 5126,
      "count": 52,
      "max": [
        0.9659756422042847,
        0.9914919137954712
      ],
      "min": [
        0.0016564464895054698,
        0.002859701169654727
      ],
      "type": "VEC2"
    },
    {
      "bufferView": 0,
      "byteOffset": 3312,
      "componentType": 5125,
      "count": 84,
      "type": "SCALAR"
    },
    {
      "bufferView": 2,
      "byteOffset": 9792,
      "componentType": 5126,
      "count": 52,
      "max": [
        0.20796021819114685,
        0.48619556427001953,
        0.56397545337677
      ],
      "min": [
        -0.20796026289463043,
        0.0,
        0.0
      ],
      "type": "VEC3"
    },
    {
      "bufferView": 2,
      "byteOffset": 10416,
      "componentType": 5126,
      "count": 52,
      "max": [
        1.0,
        1.0,
        1.0
      ],
      "min": [
        -1.0,
        -1.0,
        -1.0
      ],
      "type": "VEC3"
    },
    {
      "bufferView": 3,
      "byteOffset": 6528,
      "componentType": 5126,
      "count": 52,
      "max": [
        0.006113435607403517,
        1.0,
        1.0,
        1.0
      ],
      "min": [
        -1.0,
        -1.0,
        -1.0,
        1.0
      ],
      "type": "VEC4"
    },
    {
      "bufferView": 1,
      "byteOffset": 9792,
      "componentType": 5126,
      "count": 52,
      "max": [
        0.9513949155807495,
        0.9878467917442322
      ],
      "min": [
        0.0013156087370589375,
        0.2506299316883087
      ],
      "type": "VEC2"
    },
    {
      "bufferView": 1,
      "byteOffset": 10208,
      "componentType": 5126,
      "count": 52,
      "max": [
        0.9513949155807495,
        0.9878467917442322
      ],
      "min": [
        0.0013156087370589375,
        0.2506299316883087
      ],
      "type": "VEC2"
    },
    {
      "bufferView": 1,
      "byteOffset": 10624,
      "componentType": 5126,
      "count": 52,
      "max": [
        0.9513949155807495,
        0.9878467917442322
      ],
      "min": [
        0.0013156087370589375,
        0.2506299316883087
      ],
      "type": "VEC2"
    },
    {
      "bufferView": 0,
      "byteOffset": 3648,
      "componentType": 5125,
      "count": 84,
      "type": "SCALAR"
    },
    {
      "bufferView": 2,
      "byteOffset": 11040,
      "componentType": 5126,
      "count": 52,
      "max": [
        0.20796026289463043,
        0.48619556427001953,
        0.5639753341674805
      ],
      "min": [
        -0.20796021819114685,
        0.0,
        -2.9802322387695313e-08
      ],
      "type": "VEC3"
    },
    {
      "bufferView": 2,
      "byteOffset": 11664,
      "componentType": 5126,
      "count": 52,
      "max": [
        1.0,
        1.0,
        1.0
      ],
      "min": [
        -1.0,
        -1.0,
        -1.0
      ],
      "type": "VEC3"
    },
    {
      "bufferView": 3,
      "byteOffset": 7360,
      "componentType": 5126,
      "count": 52,
      "max": [
        1.0,
        1.0,
        1.0,
        1.0
      ],
      "min": [
        -1.0,
        -1.0,
        -1.0,
        1.0
      ],
      "type": "VEC4"
    },
    {
      "bufferView": 1,
      "byteOffset": 11040,
      "componentType": 5126,
      "count": 52,
      "max": [
        0.8566198348999023,
        0.991491973400116
      ],
      "min": [
        0.0012484847102314234,
        0.12116710841655731
      ],
      "type": "VEC2"
    },
    {
      "bufferView": 1,
      "byteOffset": 11456,
      "componentType": 5126,
      "count": 52,
      "max": [
        0.8566198348999023,
        0.991491973400116
      ],
      "min": [
        0.0012484847102314234,
        0.12116710841655731
      ],
      "type": "VEC2"
    },
    {
      "bufferView": 1,
      "byteOffset": 11872,
      "componentType": 5126,
      "count": 52,
      "max": [
        0.8566198348999023,
        0.991491973400116
      ],
      "min": [
        0.0012484847102314234,
        0.12116710841655731
      ],
      "type": "VEC2"
    },
    {
      "bufferView": 0,
      "byteOffset": 3984,
      "componentType": 5125,
      "count": 84,
      "type": "SCALAR"
    }
  ],
  "asset": {
    "extras": {
      "author": "Sousinho (https://sketchfab.com/sousinho)",
      "license": "SKETCHFAB Standard (https://sketchfab.com/licenses)",
      "source": "https://sketchfab.com/3d-models/filing-cabinet-green-f79a828774b84838b8f9d36d02920361",
      "title": "Filing cabinet - green"
    },
    "generator": "Sketchfab-15.68.0",
    "version": "2.0"
  },
  "bufferViews": [
    {
      "buffer": 0,
      "byteLength": 4320,
      "name": "floatBufferViews",
      "target": 34963
    },
    {
      "buffer": 0,
      "byteLength": 12288,
      "byteOffset": 4320,
      "byteStride": 8,
      "name": "floatBufferViews",
      "target": 34962
    },
    {
      "buffer": 0,
      "byteLength": 12288,
      "byteOffset": 16608,
      "byteStride": 12,
      "name": "floatBufferViews",
      "target": 34962
    },
    {
      "buffer": 0,
      "byteLength": 8192,
      "byteOffset": 28896,
      "byteStride": 16,
      "name": "floatBufferViews",
      "target": 34962
    }
  ],
  "buffers": [
    {
      "byteLength": 37088,
      "uri": "scene.bin"
    }
  ],
  "images": [
    {
      "uri": "textures/T_filing_cabinet_2_baseColor.png"
    },
    {
      "uri": "textures/T_filing_cabinet_2_metallicRoughness.png"
    },
    {
      "uri": "textures/T_filing_cabinet_2_normal.png"
    }
  ],
  "materials": [
    {
      "doubleSided": true,
      "name": "T_filing_cabinet_2",
      "normalTexture": {
        "index": 2
      },
      "pbrMetallicRoughness": {
        "baseColorTexture": {
          "index": 0
        },
        "metallicRoughnessTexture": {
          "index": 1
        }
      }
    }
  ],
  "meshes": [
    {
      "name": "SM_filing_cabinet_2_T_filing_cabinet_2_0",
      "primitives": [
        {
          "attributes": {
            "NORMAL": 1,
            "POSITION": 0,
            "TANGENT": 2,
            "TEXCOORD_0": 3,
            "TEXCOORD_1": 4,
            "TEXCOORD_2": 5
          },
          "indices": 6,
          "material": 0,
          "mode": 4
        }
      ]
    },
    {
      "name": "SM_filing_cabinet_2.draw_6_T_filing_cabinet_2_0",
      "primitives": [
        {
          "attributes": {
            "NORMAL": 8,
            "POSITION": 7,
            "TANGENT": 9,
            "TEXCOORD_0": 10,
            "TEXCOORD_1": 11,
            "TEXCOORD_2": 12
          },
          "indices": 13,
          "material": 0,
          "mode": 4
        }
      ]
    },
    {
      "name": "SM_filing_cabinet_2.draw_5_T_filing_cabinet_2_0",
      "primitives": [
        {
          "attributes": {
            "NORMAL": 15,
            "POSITION": 14,
            "TANGENT": 16,
            "TEXCOORD_0": 17,
            "TEXCOORD_1": 18,
            "TEXCOORD_2": 19
          },
          "indices": 20,
          "material": 0,
          "mode": 4
        }
      ]
    },
    {
      "name": "SM_filing_cabinet_2.draw_2_T_filing_cabinet_2_0",
      "primitives": [
        {
          "attributes": {
            "NORMAL": 22,
            "POSITION": 21,
            "TANGENT": 23,
            "TEXCOORD_0": 24,
            "TEXCOORD_1": 25,
            "TEXCOORD_2": 26
          },
          "indices": 27,
          "material": 0,
          "mode": 4
        }
      ]
    },
    {
      "name": "SM_filing_cabinet_2.draw_1_T_filing_cabinet_2_0",
      "primitives": [
        {
          "attributes": {
            "NORMAL": 29,
            "POSITION": 28,
            "TANGENT": 30,
            "TEXCOORD_0": 31,
            "TEXCOORD_1": 32,
            "TEXCOORD_2": 33
          },
          "indices": 34,
          "material": 0,
          "mode": 4
        }
      ]
    },
    {
      "name": "SM_filing_cabinet_2.draw_3_T_filing_cabinet_2_0",
      "primitives": [
        {
          "attributes": {
            "NORMAL": 36,
            "POSITION": 35,
            "TANGENT": 37,
            "TEXCOORD_0": 38,
            "TEXCOORD_1": 39,
            "TEXCOORD_2": 40
          },
          "indices": 41,
          "material": 0,
          "mode": 4
        }
      ]
    },
    {
      "name": "SM_filing_cabinet_2.draw_4_T_filing_cabinet_2_0",
      "primitives": [
        {
          "attributes": {
            "NORMAL": 43,
            "POSITION": 42,
            "TANGENT": 44,
            "TEXCOORD_0": 45,
            "TEXCOORD_1": 46,
            "TEXCOORD_2": 47
          },
          "indices": 48,
          "material": 0,
          "mode": 4
        }
      ]
    }
  ],
  "nodes": [
    {
      "children": [
        1
      ],
      "matrix": [
        1.0,
        0.0,
        0.0,
        0.0,
        0.0,
        2.220446049250313e-16,
        -1.0,
        0.0,
        0.0,
        1.0,
        2.220446049250313e-16,
        0.0,
        0.0,
        0.0,
        0.0,
        1.0
      ],
      "name": "Sketchfab_model"
    },
    {
      "children": [
        2
      ],
      "matrix": [
        0.009999999776482582,
        0.0,
        0.0,
        0.0,
        0.0,
        0.0,
        0.009999999776482582,
        0.0,
        0.0,
        -0.009999999776482582,
        0.0,
        0.0,
        0.0,
        0.0,
        0.0,
        1.0
      ],
      "name": "67c7f200d51c4ab5809444d8f87e8822.fbx"
    },
    {
      "children": [
        3,
        5,
        7,
        9,
        11,
        13,
        15
      ],
      "name": "RootNode"
    },
    {
      "children": [
        4
      ],
      "matrix": [
        100.0,
        0.0,
        0.0,
        0.0,
        -0.0,
        -1.629206793918314e-05,
        -99.99999999999868,
        0.0,
        0.0,
        99.99999999999868,
        -1.629206793918314e-05,
        0.0,
        -103.00566101074219,
        3.74373197555542,
        -150.19039916992188,
        1.0
      ],
      "name": "SM_filing_cabinet_2"
    },
    {
      "mesh": 0,
      "name": "SM_filing_cabinet_2_T_filing_cabinet_2_0"
    },
    {
      "children": [
        6
      ],
      "matrix": [
        100.0,
        0.0,
        0.0,
        0.0,
        -0.0,
        -1.629206793918314e-05,
        -99.99999999999868,
        0.0,
        0.0,
        99.99999999999868,
        -1.629206793918314e-05,
        0.0,
        -34.198463439941406,
        10.629770278930664,
        -97.9582290649414,
        1.0
      ],
      "name": "SM_filing_cabinet_2.draw_6"
    },
    {
      "mesh": 1,
      "name": "SM_filing_cabinet_2.draw_6_T_filing_cabinet_2_0"
    },
    {
      "children": [
        8
      ],
      "matrix": [
        100.0,
        0.0,
        0.0,
        0.0,
        -0.0,
        -1.629206793918314e-05,
        -99.99999999999868,
        0.0,
        0.0,
        99.99999999999868,
        -1.629206793918314e-05,
        0.0,
        -79.3326644897461,
        10.629770278930664,
        -97.9582290649414,
        1.0
      ],
      "name": "SM_filing_cabinet_2.draw_5"
    },
    {
      "mesh": 2,
      "name": "SM_filing_cabinet_2.draw_5_T_filing_cabinet_2_0"
    },
    {
      "children": [
        10
      ],
      "matrix": [
        100.0,
        0.0,
        0.0,
        0.0,
        -0.0,
        -1.629206793918314e-05,
        -99.99999999999868,
        0.0,
        0.0,
        99.99999999999868,
        -1.629206793918314e-05,
        0.0,
        -34.198463439941406,
        130.03256225585938,
        -97.9582290649414,
        1.0
      ],
      "name": "SM_filing_cabinet_2.draw_2"
    },
    {
      "mesh": 3,
      "name": "SM_filing_cabinet_2.draw_2_T_filing_cabinet_2_0"
    },
    {
      "children": [
        12
      ],
      "matrix": [
        100.0,
        0.0,
        0.0,
        0.0,
        -0.0,
        -1.629206793918314e-05,
        -99.99999999999868,
        0.0,
        0.0,
        99.99999999999868,
        -1.629206793918314e-05,
        0.0,
        -79.3326644897461,
        130.03256225585938,
        -97.9582290649414,
        1.0
      ],
      "name": "SM_filing_cabinet_2.draw_1"
    },
    {
      "mesh": 4,
      "name": "SM_filing_cabinet_2.draw_1_T_filing_cabinet_2_0"
    },
    {
      "children": [
        14
      ],
      "matrix": [
        100.0,
        0.0,
        0.0,
        0.0,
        -0.0,
        -1.629206793918314e-05,
        -99.99999999999868,
        0.0,
        0.0,
        99.99999999999868,
        -1.629206793918314e-05,
        0.0,
        -79.3326644897461,
        69.27360534667969,
        -97.9582290649414,
        1.0
      ],
      "name": "SM_filing_cabinet_2.draw_3"
    },
    {
      "mesh": 5,
      "name": "SM_filing_cabinet_2.draw_3_T_filing_cabinet_2_0"
    },
    {
      "children": [
        16
      ],
      "matrix": [
        100.0,
        0.0,
        0.0,
        0.0,
        -0.0,
        -1.629206793918314e-05,
        -99.99999999999868,
        0.0,
        0.0,
        99.99999999999868,
        -1.629206793918314e-05,
        0.0,
        -34.198463439941406,
        69.27360534667969,
        -97.9582290649414,
        1.0
      ],
      "name": "SM_filing_cabinet_2.draw_4"
    },
    {
      "mesh": 6,
      "name": "SM_filing_cabinet_2.draw_4_T_filing_cabinet_2_0"
    }
  ],
  "samplers": [
    {
      "magFilter": 9729,
      "minFilter": 9987,
      "wrapS": 10497,
      "wrapT": 10497
    }
  ],
  "scene": 0,
  "scenes": [
    {
      "name": "Sketchfab_Scene",
      "nodes": [
        0
      ]
    }
  ],
  "textures": [
    {
      "sampler": 0,
      "source": 0
    },
    {
      "sampler": 0,
      "source": 1
    },
    {
      "sampler": 0,
      "source": 2
    }
  ]
}
