{
  "accessors": [
    {
      "bufferView": 2,
      "componentType": 5126,
      "count": 3848,
      "max": [
        0.16466684639453888,
        0.24671120941638947,
        0.08196384459733963
      ],
      "min": [
        -0.16466684639453888,
        0.0,
        -0.08196384459733963
      ],
      "type": "VEC3"
    },
    {
      "bufferView": 2,
      "byteOffset": 46176,
      "componentType": 5126,
      "count": 3848,
      "max": [
        1.0,
        1.0,
        1.0
      ],
      "min": [
        -1.0,
        -1.0,
        -1.0
      ],
      "type": "VEC3"
    },
    {
      "bufferView": 3,
      "componentType": 5126,
      "count": 3848,
      "max": [
        1.0,
        1.0,
        1.0,
        1.0
      ],
      "min": [
        -1.0,
        -1.0,
        -1.0,
        -1.0
      ],
      "type": "VEC4"
    },
    {
      "bufferView": 1,
      "componentType": 5126,
      "count": 3848,
      "max": [
        1.0,
        1.0
      ],
      "min": [
        0.0,
        0.0
      ],
      "type": "VEC2"
    },
    {
      "bufferView": 1,
      "byteOffset": 30784,
      "componentType": 5126,
      "count": 3848,
      "max": [
        1.0,
        1.0
      ],
      "min": [
        0.0,
        0.0
      ],
      "type": "VEC2"
    },
    {
      "bufferView": 1,
      "byteOffset": 61568,
      "componentType": 5126,
      "count": 3848,
      "max": [
        1.0,
        1.0
      ],
      "min": [
        0.0,
        0.0
      ],
      "type": "VEC2"
    },
    {
      "bufferView": 1,
      "byteOffset": 92352,
      "componentType": 5126,
      "count": 3848,
      "max": [
        1.0,
        1.0
      ],
      "min": [
        0.0,
        0.0
      ],
      "type": "VEC2"
    },
    {
      "bufferView": 1,
      "byteOffset": 123136,
      "componentType": 5126,
      "count": 3848,
      "max": [
        1.0,
        1.0
      ],
      "min": [
        0.0,
        0.0
      ],
      "type": "VEC2"
    },
    {
      "bufferView": 1,
      "byteOffset": 153920,
      "componentType": 5126,
      "count": 3848,
      "max": [
        1.0,
        1.0
      ],
      "min": [
        0.0,
        0.0
      ],
      "type": "VEC2"
    },
    {
      "bufferView": 1,
      "byteOffset": 184704,
      "componentType": 5126,
      "count": 3848,
      "max": [
        1.0,
        1.0
      ],
      "min": [
        0.0,
        0.0
      ],
      "type": "VEC2"
    },
    {
      "bufferView": 0,
      "componentType": 5125,
      "count": 19200,
      "type": "SCALAR"
    },
    {
      "bufferView": 2,
      "byteOffset": 92352,
      "componentType": 5126,
      "count": 1640,
      "max": [
        0.1549322009086609,
        0.22393567860126495,
        0.07425854355096817
      ],
      "min": [
        -0.1549321413040161,
        0.005089960992336273,
        -0.07425850629806519
      ],
      "type": "VEC3"
    },
    {
      "bufferView": 2,
      "byteOffset": 112032,
      "componentType": 5126,
      "count": 1640,
      "max": [
        0.9652211666107178,
        1.0,
        0.9999995231628418
      ],
      "min": [
        -0.9652211666107178,
        -1.0,
        -0.9999995231628418
      ],
      "type": "VEC3"
    },
    {
      "bufferView": 3,
      "byteOffset": 61568,
      "componentType": 5126,
      "count": 1640,
      "max": [
        0.9994799494743347,
        0.9999995827674866,
        1.0,
        1.0
      ],
      "min": [
        -0.9994912147521973,
        -0.9999995231628418,
        -1.0,
        -1.0
      ],
      "type": "VEC4"
    },
    {
      "bufferView": 1,
      "byteOffset": 215488,
      "componentType": 5126,
      "count": 1640,
      "max": [
        1.5032016038894653,
        1.33878493309021
      ],
      "min": [
        -0.5017482042312622,
        -0.008884429931640625
      ],
      "type": "VEC2"
    },
    {
      "bufferView": 1,
      "byteOffset": 228608,
      "componentType": 5126,
      "count": 1640,
      "max": [
        1.5032016038894653,
        1.33878493309021
      ],
      "min": [
        -0.5017482042312622,
        -0.008884429931640625
      ],
      "type": "VEC2"
    },
    {
      "bufferView": 1,
      "byteOffset": 241728,
      "componentType": 5126,
      "count": 1640,
      "max": [
        1.5032016038894653,
        1.33878493309021
      ],
      "min": [
        -0.5017482042312622,
        -0.008884429931640625
      ],
      "type": "VEC2"
    },
    {
      "bufferView": 1,
      "byteOffset": 254848,
      "componentType": 5126,
      "count": 1640,
      "max": [
        1.5032016038894653,
        1.33878493309021
      ],
      "min": [
        -0.5017482042312622,
        -0.008884429931640625
      ],
      "type": "VEC2"
    },
    {
      "bufferView": 1,
      "byteOffset": 267968,
      "componentType": 5126,
      "count": 1640,
      "max": [
        1.5032016038894653,
        1.33878493309021
      ],
      "min": [
        -0.5017482042312622,
        -0.008884429931640625
      ],
      "type": "VEC2"
    },
    {
      "bufferView": 1,
      "byteOffset": 281088,
      "componentType": 5126,
      "count": 1640,
      "max": [
        1.5032016038894653,
        1.33878493309021
      ],
      "min": [
        -0.5017482042312622,
        -0.008884429931640625
      ],
      "type": "VEC2"
    },
    {
      "bufferView": 1,
      "byteOffset": 294208,
      "componentType": 5126,
      "count": 1640,
      "max": [
        1.5032016038894653,
        1.33878493309021
      ],
      "min": [
        -0.5017482042312622,
        -0.008884429931640625
      ],
      "type": "VEC2"
    },
    {
      "bufferView": 0,
      "byteOffset": 76800,
      "componentType": 5125,
      "count": 9792,
      "type": "SCALAR"
    },
    {
      "bufferView": 2,
      "byteOffset": 131712,
      "componentType": 5126,
      "count": 2958,
      "max": [
        0.1488734930753708,
        0.23025622963905334,
        0.05865977331995964
      ],
      "min": [
        -0.15533210337162018,
        0.007071740925312042,
        -0.06459186226129532
      ],
      "type": "VEC3"
    },
    {
      "bufferView": 2,
      "byteOffset": 167208,
      "componentType": 5126,
      "count": 2958,
      "max": [
        0.023300228640437126,
        0.15930475294589996,
        1.0
      ],
      "min": [
        -0.00909976102411747,
        -0.15360502898693085,
        -0.9999960660934448
      ],
      "type": "VEC3"
    },
    {
      "bufferView": 3,
      "byteOffset": 87808,
      "componentType": 5126,
      "count": 2958,
      "max": [
        1.0,
        0.001443148241378367,
        0.009052579291164875,
        1.0
      ],
      "min": [
        -1.0,
        -0.0009254597243852913,
        -0.023288138210773468,
        1.0
      ],
      "type": "VEC4"
    },
    {
      "bufferView": 1,
      "byteOffset": 307328,
      "componentType": 5126,
      "count": 2958,
      "max": [
        0.0,
        1.0
      ],
      "min": [
        0.0,
        1.0
      ],
      "type": "VEC2"
    },
    {
      "bufferView": 1,
      "byteOffset": 330992,
      "componentType": 5126,
      "count": 2958,
      "max": [
        0.0,
        1.0
      ],
      "min": [
        0.0,
        1.0
      ],
      "type": "VEC2"
    },
    {
      "bufferView": 1,
      "byteOffset": 354656,
      "componentType": 5126,
      "count": 2958,
      "max": [
        0.0,
        1.0
      ],
      "min": [
        0.0,
        1.0
      ],
      "type": "VEC2"
    },
    {
      "bufferView": 1,
      "byteOffset": 378320,
      "componentType": 5126,
      "count": 2958,
      "max": [
        0.0,
        1.0
      ],
      "min": [
        0.0,
        1.0
      ],
      "type": "VEC2"
    },
    {
      "bufferView": 1,
      "byteOffset": 401984,
      "componentType": 5126,
      "count": 2958,
      "max": [
        0.0,
        1.0
      ],
      "min": [
        0.0,
        1.0
      ],
      "type": "VEC2"
    },
    {
      "bufferView": 0,
      "byteOffset": 115968,
      "componentType": 5125,
      "count": 5712,
      "type": "SCALAR"
    },
    {
      "bufferView": 2,
      "byteOffset": 202704,
      "componentType": 5126,
      "count": 653,
      "max": [
        0.1549321562051773,
        0.23230662941932678,
        0.0622221864759922
      ],
      "min": [
        -0.15493209660053253,
        0.008126616477966309,
        -0.06838195025920868
      ],
      "type": "VEC3"
    },
    {
      "bufferView": 2,
      "byteOffset": 210540,
      "componentType": 5126,
      "count": 653,
      "max": [
        0.011000369675457478,
        0.08550325036048889,
        0.9999458193778992
      ],
      "min": [
        -0.04309879243373871,
        -0.9999448657035828,
        -0.9999997615814209
      ],
      "type": "VEC3"
    },
    {
      "bufferView": 3,
      "byteOffset": 135136,
      "componentType": 5126,
      "count": 653,
      "max": [
        1.0,
        0.07347702234983444,
        0.012138324789702892,
        1.0
      ],
      "min": [
        -1.0,
        -0.0438506044447422,
        -0.040917206555604935,
        1.0
      ],
      "type": "VEC4"
    },
    {
      "bufferView": 1,
      "byteOffset": 425648,
      "componentType": 5126,
      "count": 653,
      "max": [
        1.0,
        1.0
      ],
      "min": [
        0.0,
        0.28527092933654785
      ],
      "type": "VEC2"
    },
    {
      "bufferView": 1,
      "byteOffset": 430872,
      "componentType": 5126,
      "count": 653,
      "max": [
        1.0,
        1.0
      ],
      "min": [
        0.0,
        0.28527092933654785
      ],
      "type": "VEC2"
    },
    {
      "bufferView": 1,
      "byteOffset": 436096,
      "componentType": 5126,
      "count": 653,
      "max": [
        1.0,
        1.0
      ],
      "min": [
        0.0,
        0.28527092933654785
      ],
      "type": "VEC2"
    },
    {
      "bufferView": 1,
      "byteOffset": 441320,
      "componentType": 5126,
      "count": 653,
      "max": [
        1.0,
        1.0
      ],
      "min": [
        0.0,
        0.28527092933654785
      ],
      "type": "VEC2"
    },
    {
      "bufferView": 1,
      "byteOffset": 446544,
      "componentType": 5126,
      "count": 653,
      "max": [
        1.0,
        1.0
      ],
      "min": [
        0.0,
        0.28527092933654785
      ],
      "type": "VEC2"
    },
    {
      "bufferView": 0,
      "byteOffset": 138816,
      "componentType": 5125,
      "count": 2772,
      "type": "SCALAR"
    },
    {
      "bufferView": 2,
      "byteOffset": 218376,
      "componentType": 5126,
      "count": 726,
      "max": [
        0.1488734930753708,
        0.22846975922584534,
        0.05865132436156273
      ],
      "min": [
        -0.15533210337162018,
        0.01104128360748291,
        -0.06174952909350395
      ],
      "type": "VEC3"
    },
    {
      "bufferView": 2,
      "byteOffset": 227088,
      "componentType": 5126,
      "count": 726,
      "max": [
        0.004099898971617222,
        0.15360502898693085,
        1.0
      ],
      "min": [
        -0.0009000231511890888,
        -0.06400306522846222,
        -0.9999969005584717
      ],
      "type": "VEC3"
    },
    {
      "bufferView": 3,
      "byteOffset": 145584,
      "componentType": 5126,
      "count": 726,
      "max": [
        1.0,
        0.0001698361011222005,
        0.0008982464787550271,
        1.0
      ],
      "min": [
        -1.0,
        -0.00024322250101249665,
        -0.004096142016351223,
        1.0
      ],
      "type": "VEC4"
    },
    {
      "bufferView": 1,
      "byteOffset": 451768,
      "componentType": 5126,
      "count": 726,
      "max": [
        0.0,
        1.0
      ],
      "min": [
        0.0,
        1.0
      ],
      "type": "VEC2"
    },
    {
      "bufferView": 1,
      "byteOffset": 457576,
      "componentType": 5126,
      "count": 726,
      "max": [
        0.0,
        1.0
      ],
      "min": [
        0.0,
        1.0
      ],
      "type": "VEC2"
    },
    {
      "bufferView": 1,
      "byteOffset": 463384,
      "componentType": 5126,
      "count": 726,
      "max": [
        0.0,
        1.0
      ],
      "min": [
        0.0,
        1.0
      ],
      "type": "VEC2"
    },
    {
      "bufferView": 1,
      "byteOffset": 469192,
      "componentType": 5126,
      "count": 726,
      "max": [
        0.0,
        1.0
      ],
      "min": [
        0.0,
        1.0
      ],
      "type": "VEC2"
    },
    {
      "bufferView": 1,
      "byteOffset": 475000,
      "componentType": 5126,
      "count": 726,
      "max": [
        0.0,
        1.0
      ],
      "min": [
        0.0,
        1.0
      ],
      "type": "VEC2"
    },
    {
      "bufferView": 0,
      "byteOffset": 149904,
      "componentType": 5125,
      "count": 1344,
      "type": "SCALAR"
    }
  ],
  "asset": {
    "extras": {
      "author": "Chenchanchong (https://sketchfab.com/Chenchanchong)",
      "license": "CC-BY-4.0 (http://creativecommons.org/licenses/by/4.0/)",
      "source": "https://sketchfab.com/3d-models/file-folder-aee576b79a354824908e1e44d3d7dd16",
      "title": "File folder"
    },
    "generator": "Sketchfab-16.75.0",
    "version": "2.0"
  },
  "bufferViews": [
    {
      "buffer": 0,
      "byteLength": 155280,
      "name": "floatBufferViews",
      "target": 34963
    },
    {
      "buffer": 0,
      "byteLength": 480808,
      "byteOffset": 155280,
      "byteStride": 8,
      "name": "floatBufferViews",
      "target": 34962
    },
    {
      "buffer": 0,
      "byteLength": 235800,
      "byteOffset": 636088,
      "byteStride": 12,
      "name": "floatBufferViews",
      "target": 34962
    },
    {
      "buffer": 0,
      "byteLength": 157200,
      "byteOffset": 871888,
      "byteStride": 16,
      "name": "floatBufferViews",
      "target": 34962
    }
  ],
  "buffers": [
    {
      "byteLength": 1029088,
      "uri": "scene.bin"
    }
  ],
  "extensionsUsed": [
    "KHR_texture_transform",
    "KHR_materials_sheen"
  ],
  "images": [
    {
      "uri": "textures/Metal_Polished_Gold_baseColor.jpeg"
    },
    {
      "uri": "textures/Metal_Polished_Gold_metallicRoughness.png"
    },
    {
      "uri": "textures/Metal_Polished_Gold_normal.jpeg"
    },
    {
      "uri": "textures/Fabric_Leather_Black_Simple_baseColor.jpeg"
    },
    {
      "uri": "textures/Fabric_Leather_Black_Simple_metallicRoughness.png"
    },
    {
      "uri": "textures/Fabric_Leather_Black_Simple_normal.jpeg"
    },
    {
      "uri": "textures/Paper_White_metallicRoughness.png"
    },
    {
      "uri": "textures/Paper_White_normal.jpeg"
    }
  ],
  "materials": [
    {
      "doubleSided": true,
      "name": "Metal_Polished_Gold",
      "normalTexture": {
        "index": 2,
        "scale": 0.25
      },
      "pbrMetallicRoughness": {
        "baseColorTexture": {
          "index": 0
        },
        "metallicRoughnessTexture": {
          "index": 1
        }
      }
    },
    {
      "doubleSided": true,
      "extensions": {
        "KHR_materials_sheen": {
          "sheenColorFactor": [
            1.0,
            1.0,
            1.0
          ],
          "sheenRoughnessFactor": 0.5
        }
      },
      "name": "Fabric_Leather_Black_Simple",
      "normalTexture": {
        "extensions": {
          "KHR_texture_transform": {
            "offset": [
              0,
              -2
            ],
            "scale": [
              3,
              3
            ]
          }
        },
        "index": 5,
        "scale": 0.25
      },
      "pbrMetallicRoughness": {
        "baseColorTexture": {
          "extensions": {
            "KHR_texture_transform": {
              "offset": [
                0,
                -4
              ],
              "scale": [
                5,
                5
              ]
            }
          },
          "index": 3
        },
        "metallicFactor": 0.0,
        "metallicRoughnessTexture": {
          "extensions": {
            "KHR_texture_transform": {
              "offset": [
                0,
                -2
              ],
              "scale": [
                3,
                3
              ]
            }
          },
          "index": 4
        }
      }
    },
    {
      "doubleSided": true,
      "name": "Paper_White",
      "normalTexture": {
        "extensions": {
          "KHR_texture_transform": {
            "offset": [
              0,
              -3
            ],
            "scale": [
              4,
              4
            ]
          }
        },
        "index": 7,
        "scale": 0.5
      },
      "pbrMetallicRoughness": {
        "baseColorFactor": [
          0.847235,
          0.847235,
          0.847235,
          1.0
        ],
        "metallicFactor": 0.0,
        "metallicRoughnessTexture": {
          "extensions": {
            "KHR_texture_transform": {
              "offset": [
                0,
                -3
              ],
              "scale": [
                4,
                4
              ]
            }
          },
          "index": 6
        }
      }
    },
    {
      "doubleSided": true,
      "name": "Paper_Yellow",
      "normalTexture": {
        "extensions": {
          "KHR_texture_transform": {
            "offset": [
              0,
              -3
            ],
            "scale": [
              4,
              4
            ]
          }
        },
        "index": 7,
        "scale": 0.5
      },
      "pbrMetallicRoughness": {
        "baseColorFactor": [
          0.783538,
          0.526582,
          0.391765,
          1.0
        ],
        "metallicFactor": 0.0,
        "metallicRoughnessTexture": {
          "extensions": {
            "KHR_texture_transform": {
              "offset": [
                0,
                -3
              ],
              "scale": [
                4,
                4
              ]
            }
          },
          "index": 6
        }
      }
    },
    {
      "doubleSided": true,
      "name": "Paper_Blue",
      "normalTexture": {
        "extensions": {
          "KHR_texture_transform": {
            "offset": [
              0,
              -3
            ],
            "scale": [
              4,
              4
            ]
          }
        },
        "index": 7,
        "scale": 0.5
      },
      "pbrMetallicRoughness": {
        "baseColorFactor": [
          0.75848,
          0.847235,
          0.843851,
          1.0
        ],
        "metallicFactor": 0.0,
        "metallicRoughnessTexture": {
          "extensions": {
            "KHR_texture_transform": {
              "offset": [
                0,
                -3
              ],
              "scale": [
                4,
                4
              ]
            }
          },
          "index": 6
        }
      }
    }
  ],
  "meshes": [
    {
      "name": "Object_0",
      "primitives": [
        {
          "attributes": {
            "NORMAL": 1,
            "POSITION": 0,
            "TANGENT": 2,
            "TEXCOORD_0": 3,
            "TEXCOORD_1": 4,
            "TEXCOORD_2": 5,
            "TEXCOORD_3": 6,
            "TEXCOORD_4": 7,
            "TEXCOORD_5": 8,
            "TEXCOORD_6": 9
          },
          "indices": 10,
          "material": 0,
          "mode": 4
        }
      ]
    },
    {
      "name": "Object_1",
      "primitives": [
        {
          "attributes": {
            "NORMAL": 12,
            "POSITION": 11,
            "TANGENT": 13,
            "TEXCOORD_0": 14,
            "TEXCOORD_1": 15,
            "TEXCOORD_2": 16,
            "TEXCOORD_3": 17,
            "TEXCOORD_4": 18,
            "TEXCOORD_5": 19,
            "TEXCOORD_6": 20
          },
          "indices": 21,
          "material": 1,
          "mode": 4
        }
      ]
    },
    {
      "name": "Object_2",
      "primitives": [
        {
          "attributes": {
            "NORMAL": 23,
            "POSITION": 22,
            "TANGENT": 24,
            "TEXCOORD_0": 25,
            "TEXCOORD_1": 26,
            "TEXCOORD_2": 27,
            "TEXCOORD_3": 28,
            "TEXCOORD_4": 29
          },
          "indices": 30,
          "material": 2,
          "mode": 4
        }
      ]
    },
    {
      "name": "Object_3",
      "primitives": [
        {
          "attributes": {
            "NORMAL": 32,
            "POSITION": 31,
            "TANGENT": 33,
            "TEXCOORD_0": 34,
            "TEXCOORD_1": 35,
            "TEXCOORD_2": 36,
            "TEXCOORD_3": 37,
            "TEXCOORD_4": 38
          },
          "indices": 39,
          "material": 3,
          "mode": 4
        }
      ]
    },
    {
      "name": "Object_4",
      "primitives": [
        {
          "attributes": {
            "NORMAL": 41,
            "POSITION": 40,
            "TANGENT": 42,
            "TEXCOORD_0": 43,
            "TEXCOORD_1": 44,
            "TEXCOORD_2": 45,
            "TEXCOORD_3": 46,
            "TEXCOORD_4": 47
          },
          "indices": 48,
          "material": 4,
          "mode": 4
        }
      ]
    }
  ],
  "nodes": [
    {
      "children": [
        1
      ],
      "matrix": [
        1.0,
        0.0,
        0.0,
        0.0,
        0.0,
        2.220446049250313e-16,
        -1.0,
        0.0,
        0.0,
        1.0,
        2.220446049250313e-16,
        0.0,
        0.0,
        0.0,
        0.0,
        1.0
      ],
      "name": "Sketchfab_model"
    },
    {
      "children": [
        2
      ],
      "name": "root"
    },
    {
      "children": [
        3
      ],
      "matrix": [
        1.0,
        0.0,
        0.0,
        0.0,
        0.0,
        2.220446049250313e-16,
        1.0,
        0.0,
        0.0,
        -1.0,
        2.220446049250313e-16,
        0.0,
        0.0,
        0.0,
        0.0,
        1.0
      ],
      "name": "GLTF_SceneRootNode"
    },
    {
      "children": [
        4
      ],
      "matrix": [
        1.0,
        0.0,
        0.0,
        0.0,
        0.0,
        2.220446049250313e-16,
        -1.0,
        0.0,
        0.0,
        1.0,
        2.220446049250313e-16,
        0.0,
        0.0,
        0.0,
        0.0,
        1.0
      ],
      "name": "Sketchfab_model_0"
    },
    {
      "children": [
        5
      ],
      "name": "root_1"
    },
    {
      "children": [
        6
      ],
      "matrix": [
        1.0,
        0.0,
        0.0,
        0.0,
        0.0,
        2.220446049250313e-16,
        1.0,
        0.0,
        0.0,
        -1.0,
        2.220446049250313e-16,
        0.0,
        0.0,
        0.0,
        0.0,
        1.0
      ],
      "name": "GLTF_SceneRootNode_2"
    },
    {
      "children": [
        7,
        9,
        11,
        13,
        15
      ],
      "name": "Office_Decor_Organiser-Paper_01_0_3"
    },
    {
      "children": [
        8
      ],
      "name": "Object_4_4"
    },
    {
      "mesh": 0,
      "name": "Object_8"
    },
    {
      "children": [
        10
      ],
      "name": "Object_5_5"
    },
    {
      "mesh": 1,
      "name": "Object_10"
    },
    {
      "children": [
        12
      ],
      "name": "Object_6_6"
    },
    {
      "mesh": 2,
      "name": "Object_12"
    },
    {
      "children": [
        14
      ],
      "name": "Object_7_7"
    },
    {
      "mesh": 3,
      "name": "Object_14"
    },
    {
      "children": [
        16
      ],
      "name": "Object_8_8"
    },
    {
      "mesh": 4,
      "name": "Object_16"
    }
  ],
  "samplers": [
    {
      "magFilter": 9729,
      "minFilter": 9987,
      "wrapS": 10497,
      "wrapT": 10497
    }
  ],
  "scene": 0,
  "scenes": [
    {
      "name": "Sketchfab_Scene",
      "nodes": [
        0
      ]
    }
  ],
  "textures": [
    {
      "sampler": 0,
      "source": 0
    },
    {
      "sampler": 0,
      "source": 1
    },
    {
      "sampler": 0,
      "source": 2
    },
    {
      "sampler": 0,
      "source": 3
    },
    {
      "sampler": 0,
      "source": 4
    },
    {
      "sampler": 0,
      "source": 5
    },
    {
      "sampler": 0,
      "source": 6
    },
    {
      "sampler": 0,
      "source": 7
    }
  ]
}
