{
  "asset": {
    "generator": "Khronos glTF Blender I/O v5.1.20",
    "version": "2.0"
  },
  "scene": 0,
  "scenes": [
    {
      "name": "Scene",
      "nodes": [
        0
      ]
    }
  ],
  "nodes": [
    {
      "mesh": 0,
      "name": "plastic_broom"
    }
  ],
  "materials": [
    {
      "doubleSided": true,
      "name": "plastic_broom",
      "normalTexture": {
        "index": 0
      },
      "pbrMetallicRoughness": {
        "baseColorTexture": {
          "index": 1
        },
        "metallicRoughnessTexture": {
          "index": 2
        }
      }
    },
    {
      "alphaMode": "BLEND",
      "doubleSided": true,
      "name": "plastic_broom_bristles",
      "normalTexture": {
        "index": 3
      },
      "pbrMetallicRoughness": {
        "baseColorTexture": {
          "index": 4
        },
        "metallicRoughnessTexture": {
          "index": 5
        }
      }
    }
  ],
  "meshes": [
    {
      "name": "old_broom",
      "primitives": [
        {
          "attributes": {
            "POSITION": 0,
            "NORMAL": 1,
            "TEXCOORD_0": 2
          },
          "indices": 3,
          "material": 0
        },
        {
          "attributes": {
            "POSITION": 4,
            "NORMAL": 5,
            "TEXCOORD_0": 6
          },
          "indices": 7,
          "material": 1
        }
      ]
    }
  ],
  "textures": [
    {
      "sampler": 0,
      "source": 0
    },
    {
      "sampler": 0,
      "source": 1
    },
    {
      "sampler": 0,
      "source": 2
    },
    {
      "sampler": 0,
      "source": 0
    },
    {
      "sampler": 0,
      "source": 3
    },
    {
      "sampler": 0,
      "source": 2
    }
  ],
  "images": [
    {
      "mimeType": "image/jpeg",
      "name": "plastic_broom_nor_gl",
      "uri": "textures/plastic_broom_nor_gl_1k.jpg"
    },
    {
      "mimeType": "image/jpeg",
      "name": "plastic_broom_diff",
      "uri": "textures/plastic_broom_diff_1k.jpg"
    },
    {
      "mimeType": "image/jpeg",
      "name": "plastic_broom_metal-plastic_broom_rough",
      "uri": "textures/plastic_broom_arm_1k.jpg"
    },
    {
      "mimeType": "image/jpeg",
      "name": "plastic_broom_diff-plastic_broom_alpha",
      "uri": "textures/plastic_broom_diff_1k.jpg"
    }
  ],
  "accessors": [
    {
      "bufferView": 0,
      "componentType": 5126,
      "count": 3351,
      "max": [
        0.19999998807907104,
        1.1973769664764404,
        0.02510368824005127
      ],
      "min": [
        -0.19999998807907104,
        0.05311025679111481,
        -0.5279799699783325
      ],
      "type": "VEC3"
    },
    {
      "bufferView": 1,
      "componentType": 5126,
      "count": 3351,
      "type": "VEC3"
    },
    {
      "bufferView": 2,
      "componentType": 5126,
      "count": 3351,
      "type": "VEC2"
    },
    {
      "bufferView": 3,
      "componentType": 5123,
      "count": 16752,
      "type": "SCALAR"
    },
    {
      "bufferView": 4,
      "componentType": 5126,
      "count": 11586,
      "max": [
        0.20822682976722717,
        0.05367539823055267,
        0.038613006472587585
      ],
      "min": [
        -0.20816577970981598,
        -0.00014635687693953514,
        -0.039538461714982986
      ],
      "type": "VEC3"
    },
    {
      "bufferView": 5,
      "componentType": 5126,
      "count": 11586,
      "type": "VEC3"
    },
    {
      "bufferView": 6,
      "componentType": 5126,
      "count": 11586,
      "type": "VEC2"
    },
    {
      "bufferView": 7,
      "componentType": 5123,
      "count": 39456,
      "type": "SCALAR"
    }
  ],
  "bufferViews": [
    {
      "buffer": 0,
      "byteLength": 40212,
      "byteOffset": 0,
      "target": 34962
    },
    {
      "buffer": 0,
      "byteLength": 40212,
      "byteOffset": 40212,
      "target": 34962
    },
    {
      "buffer": 0,
      "byteLength": 26808,
      "byteOffset": 80424,
      "target": 34962
    },
    {
      "buffer": 0,
      "byteLength": 33504,
      "byteOffset": 107232,
      "target": 34963
    },
    {
      "buffer": 0,
      "byteLength": 139032,
      "byteOffset": 140736,
      "target": 34962
    },
    {
      "buffer": 0,
      "byteLength": 139032,
      "byteOffset": 279768,
      "target": 34962
    },
    {
      "buffer": 0,
      "byteLength": 92688,
      "byteOffset": 418800,
      "target": 34962
    },
    {
      "buffer": 0,
      "byteLength": 78912,
      "byteOffset": 511488,
      "target": 34963
    }
  ],
  "samplers": [
    {
      "magFilter": 9729,
      "minFilter": 9987
    }
  ],
  "buffers": [
    {
      "byteLength": 590400,
      "uri": "plastic_broom.bin"
    }
  ]
}