{
  "asset": {
    "generator": "Khronos glTF Blender I/O v5.1.19",
    "version": "2.0"
  },
  "scene": 0,
  "scenes": [
    {
      "name": "Scene",
      "nodes": [
        0,
        1,
        2,
        3
      ]
    }
  ],
  "nodes": [
    {
      "mesh": 0,
      "name": "cigarette_pack_main"
    },
    {
      "mesh": 1,
      "name": "cigarette_pack_foil"
    },
    {
      "mesh": 2,
      "name": "cigarette_pack_cigarettes"
    },
    {
      "mesh": 3,
      "name": "cigarette_pack_cigarette"
    }
  ],
  "materials": [
    {
      "doubleSided": true,
      "name": "cigarette_pack",
      "normalTexture": {
        "index": 0
      },
      "pbrMetallicRoughness": {
        "baseColorTexture": {
          "index": 1
        },
        "metallicRoughnessTexture": {
          "index": 2
        }
      }
    }
  ],
  "meshes": [
    {
      "name": "Cigarette_Pack.001",
      "primitives": [
        {
          "attributes": {
            "POSITION": 0,
            "NORMAL": 1,
            "TEXCOORD_0": 2
          },
          "indices": 3,
          "material": 0
        }
      ]
    },
    {
      "name": "Lining_Foil.001",
      "primitives": [
        {
          "attributes": {
            "POSITION": 4,
            "NORMAL": 5,
            "TEXCOORD_0": 6
          },
          "indices": 7,
          "material": 0
        }
      ]
    },
    {
      "name": "Cigarette.001",
      "primitives": [
        {
          "attributes": {
            "POSITION": 8,
            "NORMAL": 9,
            "TEXCOORD_0": 10
          },
          "indices": 11,
          "material": 0
        }
      ]
    },
    {
      "name": "Cigarette.015",
      "primitives": [
        {
          "attributes": {
            "POSITION": 12,
            "NORMAL": 13,
            "TEXCOORD_0": 14
          },
          "indices": 15,
          "material": 0
        }
      ]
    }
  ],
  "textures": [
    {
      "sampler": 0,
      "source": 0
    },
    {
      "sampler": 0,
      "source": 1
    },
    {
      "sampler": 0,
      "source": 2
    }
  ],
  "images": [
    {
      "mimeType": "image/jpeg",
      "name": "cigarette_pack_nor_gl",
      "uri": "textures/cigarette_pack_nor_gl_1k.jpg"
    },
    {
      "mimeType": "image/jpeg",
      "name": "cigarette_pack_diff",
      "uri": "textures/cigarette_pack_diff_1k.jpg"
    },
    {
      "mimeType": "image/jpeg",
      "name": "cigarette_pack_metal-cigarette_pack_rough",
      "uri": "textures/cigarette_pack_arm_1k.jpg"
    }
  ],
  "accessors": [
    {
      "bufferView": 0,
      "componentType": 5126,
      "count": 1951,
      "max": [
        0.027800006791949272,
        0.10241518914699554,
        0.02332291565835476
      ],
      "min": [
        -0.027800004929304123,
        -0.0003000000142492354,
        -0.006162144709378481
      ],
      "type": "VEC3"
    },
    {
      "bufferView": 1,
      "componentType": 5126,
      "count": 1951,
      "type": "VEC3"
    },
    {
      "bufferView": 2,
      "componentType": 5126,
      "count": 1951,
      "type": "VEC2"
    },
    {
      "bufferView": 3,
      "componentType": 5123,
      "count": 8424,
      "type": "SCALAR"
    },
    {
      "bufferView": 4,
      "componentType": 5126,
      "count": 3107,
      "max": [
        0.027327386662364006,
        0.08757851272821426,
        0.02227870002388954
      ],
      "min": [
        -0.027024948969483376,
        0.00042247152305208147,
        0.00021466950420290232
      ],
      "type": "VEC3"
    },
    {
      "bufferView": 5,
      "componentType": 5126,
      "count": 3107,
      "type": "VEC3"
    },
    {
      "bufferView": 6,
      "componentType": 5126,
      "count": 3107,
      "type": "VEC2"
    },
    {
      "bufferView": 7,
      "componentType": 5123,
      "count": 17460,
      "type": "SCALAR"
    },
    {
      "bufferView": 8,
      "componentType": 5126,
      "count": 2052,
      "max": [
        0.02704823762178421,
        0.07783100008964539,
        0.021602675318717957
      ],
      "min": [
        -0.02735668420791626,
        0.00046344101428985596,
        0.0002468544989824295
      ],
      "type": "VEC3"
    },
    {
      "bufferView": 9,
      "componentType": 5126,
      "count": 2052,
      "type": "VEC3"
    },
    {
      "bufferView": 10,
      "componentType": 5126,
      "count": 2052,
      "type": "VEC2"
    },
    {
      "bufferView": 11,
      "componentType": 5123,
      "count": 9120,
      "type": "SCALAR"
    },
    {
      "bufferView": 12,
      "componentType": 5126,
      "count": 182,
      "max": [
        0.02704823762178421,
        0.09655213356018066,
        0.021602660417556763
      ],
      "min": [
        0.019112342968583107,
        0.018977314233779907,
        0.013666371814906597
      ],
      "type": "VEC3"
    },
    {
      "bufferView": 13,
      "componentType": 5126,
      "count": 182,
      "type": "VEC3"
    },
    {
      "bufferView": 14,
      "componentType": 5126,
      "count": 182,
      "type": "VEC2"
    },
    {
      "bufferView": 15,
      "componentType": 5123,
      "count": 864,
      "type": "SCALAR"
    }
  ],
  "bufferViews": [
    {
      "buffer": 0,
      "byteLength": 23412,
      "byteOffset": 0,
      "target": 34962
    },
    {
      "buffer": 0,
      "byteLength": 23412,
      "byteOffset": 23412,
      "target": 34962
    },
    {
      "buffer": 0,
      "byteLength": 15608,
      "byteOffset": 46824,
      "target": 34962
    },
    {
      "buffer": 0,
      "byteLength": 16848,
      "byteOffset": 62432,
      "target": 34963
    },
    {
      "buffer": 0,
      "byteLength": 37284,
      "byteOffset": 79280,
      "target": 34962
    },
    {
      "buffer": 0,
      "byteLength": 37284,
      "byteOffset": 116564,
      "target": 34962
    },
    {
      "buffer": 0,
      "byteLength": 24856,
      "byteOffset": 153848,
      "target": 34962
    },
    {
      "buffer": 0,
      "byteLength": 34920,
      "byteOffset": 178704,
      "target": 34963
    },
    {
      "buffer": 0,
      "byteLength": 24624,
      "byteOffset": 213624,
      "target": 34962
    },
    {
      "buffer": 0,
      "byteLength": 24624,
      "byteOffset": 238248,
      "target": 34962
    },
    {
      "buffer": 0,
      "byteLength": 16416,
      "byteOffset": 262872,
      "target": 34962
    },
    {
      "buffer": 0,
      "byteLength": 18240,
      "byteOffset": 279288,
      "target": 34963
    },
    {
      "buffer": 0,
      "byteLength": 2184,
      "byteOffset": 297528,
      "target": 34962
    },
    {
      "buffer": 0,
      "byteLength": 2184,
      "byteOffset": 299712,
      "target": 34962
    },
    {
      "buffer": 0,
      "byteLength": 1456,
      "byteOffset": 301896,
      "target": 34962
    },
    {
      "buffer": 0,
      "byteLength": 1728,
      "byteOffset": 303352,
      "target": 34963
    }
  ],
  "samplers": [
    {
      "magFilter": 9729,
      "minFilter": 9987
    }
  ],
  "buffers": [
    {
      "byteLength": 305080,
      "uri": "cigarette_pack.bin"
    }
  ]
}